<svg width="710" height="270" viewBox="0 0 710 270" fill="none" xmlns="http://www.w3.org/2000/svg">
<g clip-path="url(#clip0_131_545)">
<path opacity="0.99" fill-rule="evenodd" clip-rule="evenodd" d="M519.187 0.632568C572.91 0.632568 626.635 0.632568 680.357 0.632568C681.877 2.15955 682.172 3.93455 681.245 5.95757C680.925 6.38407 680.51 6.67992 680.002 6.84507C626.515 7.08175 573.03 7.08175 519.542 6.84507C517.672 5.69987 517.139 4.10238 517.945 2.05257C518.435 1.62477 518.847 1.15144 519.187 0.632568Z" fill="#FEFFFE"/>
<path opacity="0.974" fill-rule="evenodd" clip-rule="evenodd" d="M523.802 19.8025C574.45 19.7433 625.094 19.8025 675.742 19.98C680.659 21.5841 682.611 24.9566 681.6 30.0975C680.524 32.8312 678.571 34.547 675.742 35.245C625.094 35.4816 574.45 35.4816 523.802 35.245C519.936 34.1588 517.806 31.6147 517.412 27.6125C517.884 23.595 520.014 20.9917 523.802 19.8025Z" fill="#FEFFFE"/>
<path opacity="0.995" fill-rule="evenodd" clip-rule="evenodd" d="M526.288 48.2024C575.278 48.1431 624.268 48.2024 673.258 48.3799C677.543 49.4687 680.322 52.1312 681.6 56.3674C681.838 105.594 681.838 154.821 681.6 204.047C680.443 208.624 677.543 211.404 672.903 212.39C624.151 212.627 575.395 212.627 526.643 212.39C521.084 210.921 518.066 207.312 517.59 201.562C517.353 154.111 517.353 106.659 517.59 59.2074C517.956 53.4901 520.856 49.8219 526.288 48.2024ZM587.703 76.2474C595.751 76.2474 603.795 76.2474 611.843 76.2474C611.843 82.5192 611.843 88.7906 611.843 95.0624C603.795 95.0624 595.751 95.0624 587.703 95.0624C587.703 88.7906 587.703 82.5192 587.703 76.2474ZM587.703 108.552C595.751 108.552 603.795 108.552 611.843 108.552C611.843 132.811 611.843 157.069 611.843 181.327C603.795 181.327 595.751 181.327 587.703 181.327C587.703 157.069 587.703 132.811 587.703 108.552Z" fill="#FEFFFE"/>
<path opacity="0.994" fill-rule="evenodd" clip-rule="evenodd" d="M-0.177734 251.263C-0.177734 202.036 -0.177734 152.809 -0.177734 103.583C1.40164 98.9882 4.59666 96.2071 9.40727 95.2401C57.6873 95.0033 105.967 95.0033 154.247 95.2401C160.116 96.4936 163.37 100.103 164.01 106.068C164.247 153.519 164.247 200.971 164.01 248.423C163.818 253.485 161.392 256.975 156.732 258.895C107.17 259.485 57.5886 259.603 7.98727 259.25C3.89898 257.942 1.17733 255.28 -0.177734 251.263ZM88.9273 123.818C94.0758 123.677 99.164 124.151 104.192 125.238C103.782 130.352 103.19 135.44 102.417 140.503C102.18 140.621 101.944 140.739 101.707 140.858C98.2851 140.034 94.8533 139.974 91.4123 140.68C87.5115 141.904 85.3226 144.566 84.8448 148.668C84.6673 152.571 84.608 156.476 84.6673 160.383C89.7555 160.383 94.844 160.383 99.9323 160.383C99.9323 165.353 99.9323 170.323 99.9323 175.293C94.844 175.293 89.7555 175.293 84.6673 175.293C84.6673 191.978 84.6673 208.663 84.6673 225.348C77.6855 225.348 70.704 225.348 63.7223 225.348C63.7223 208.663 63.7223 191.978 63.7223 175.293C59.699 175.293 55.6755 175.293 51.6523 175.293C51.6523 170.323 51.6523 165.353 51.6523 160.383C55.6755 160.383 59.699 160.383 63.7223 160.383C63.5888 155.043 63.7663 149.718 64.2548 144.408C66.1629 135.313 71.4286 129.101 80.0523 125.77C83.0087 124.885 85.9673 124.235 88.9273 123.818Z" fill="#FEFFFE"/>
<path opacity="0.993" fill-rule="evenodd" clip-rule="evenodd" d="M181.938 95.0625C230.336 95.0032 278.734 95.0625 327.133 95.24C332.398 96.2457 335.534 99.3818 336.54 104.648C336.777 153.046 336.777 201.444 336.54 249.843C335.641 254.647 332.86 257.782 328.198 259.25C278.971 259.487 229.744 259.487 180.518 259.25C176.281 257.972 173.619 255.192 172.53 250.908C172.293 201.918 172.293 152.928 172.53 103.938C173.916 99.0591 177.052 96.1009 181.938 95.0625ZM251.518 142.988C260.885 142.516 269.286 145.061 276.723 150.62C282.104 155.631 284.885 161.843 285.065 169.258C285.183 182.866 285.302 196.474 285.42 210.083C285.815 214.603 286.821 218.981 288.438 223.218C281.456 223.691 274.474 223.691 267.493 223.218C266.034 219.508 264.91 215.721 264.12 211.858C255.854 224.592 244.553 228.32 230.218 223.04C221.288 218.741 216.791 211.582 216.728 201.563C216.958 191.688 221.573 184.766 230.573 180.795C235.927 178.659 241.488 177.476 247.258 177.245C252.818 177.068 258.38 177.008 263.943 177.068C264.002 173.752 263.943 170.439 263.765 167.128C262.212 161.046 258.248 158.087 251.873 158.253C248.148 158.21 245.012 159.512 242.465 162.158C241.462 163.924 240.929 165.818 240.868 167.838C234.123 167.838 227.378 167.838 220.633 167.838C220.492 160.958 223.096 155.338 228.443 150.975C235.295 145.861 242.987 143.198 251.518 142.988Z" fill="#FEFFFE"/>
<path opacity="0.992" fill-rule="evenodd" clip-rule="evenodd" d="M354.468 95.0625C402.865 95.0032 451.266 95.0625 499.663 95.24C504.612 96.1641 507.746 99.0634 509.07 103.938C509.308 152.928 509.308 201.918 509.07 250.908C507.981 255.192 505.318 257.972 501.083 259.25C451.855 259.487 402.631 259.487 353.403 259.25C348.74 257.782 345.96 254.647 345.06 249.843C344.824 201.444 344.824 153.046 345.06 104.648C346.13 99.3772 349.266 96.1822 354.468 95.0625ZM395.648 144.763C416.71 144.763 437.776 144.763 458.838 144.763C458.898 148.669 458.838 152.574 458.66 156.478C445.941 173.458 433.218 190.439 420.498 207.42C433.633 207.598 446.768 207.657 459.903 207.598C459.903 212.923 459.903 218.248 459.903 223.573C438.01 223.573 416.121 223.573 394.228 223.573C394.168 219.429 394.228 215.288 394.405 211.148C407.143 194.504 419.745 177.76 432.213 160.915C420.026 160.738 407.835 160.678 395.648 160.738C395.648 155.413 395.648 150.088 395.648 144.763Z" fill="#FEFFFE"/>
<path opacity="0.966" fill-rule="evenodd" clip-rule="evenodd" d="M249.387 188.782C254.239 188.782 259.091 188.782 263.942 188.782C266.814 199.437 263.027 206.241 252.582 209.195C249.35 209.984 246.155 209.866 242.997 208.84C240.538 207.919 238.94 206.203 238.205 203.692C237.156 195.101 240.884 190.131 249.387 188.782Z" fill="#FEFFFE"/>
</g>
<defs>
<clipPath id="clip0_131_545">
<rect width="710" height="268.38" fill="white" transform="translate(0 0.810059)"/>
</clipPath>
</defs>
</svg>
