<svg width="1922" height="730" viewBox="0 0 1922 730" fill="none" xmlns="http://www.w3.org/2000/svg">
<path opacity="0.966" d="M27.5 267C163.5 266.333 299.5 266.333 435.5 267C452.031 270.531 461.198 280.698 463 297.5C463.667 431.167 463.667 564.833 463 698.5C462.46 712.759 455.626 722.592 442.5 728C302.889 729.662 163.222 729.995 23.5 729C11.9837 725.316 4.31706 717.816 0.5 706.5V290.5C4.94898 277.558 13.9491 269.724 27.5 267ZM513.5 266.5C649.834 266.333 786.167 266.5 922.5 267C937.333 269.833 946.167 278.667 949 293.5C949.667 429.833 949.667 566.167 949 702.5C946.467 716.033 938.634 724.866 925.5 729C786.833 729.667 648.167 729.667 509.5 729C497.567 725.401 490.067 717.568 487 705.5C486.333 567.5 486.333 429.5 487 291.5C490.904 277.758 499.738 269.425 513.5 266.5ZM999.5 266.5C1135.83 266.333 1272.17 266.5 1408.5 267C1422.44 269.603 1431.27 277.77 1435 291.5C1435.67 429.5 1435.67 567.5 1435 705.5C1431.93 717.568 1424.43 725.401 1412.5 729C1273.83 729.667 1135.17 729.667 996.5 729C983.366 724.866 975.533 716.033 973 702.5C972.333 566.167 972.333 429.833 973 293.5C976.014 278.654 984.847 269.654 999.5 266.5ZM780.5 423C759.553 407.34 735.887 400.173 709.5 401.5C685.47 402.093 663.803 409.593 644.5 424C629.438 436.289 622.105 452.122 622.5 471.5H679.5C679.673 465.811 681.173 460.477 684 455.5C691.175 448.047 700.009 444.38 710.5 444.5C728.459 444.035 739.626 452.369 744 469.5C744.5 478.827 744.666 488.161 744.5 497.5C728.83 497.333 713.163 497.5 697.5 498C681.248 498.65 665.582 501.984 650.5 508C625.15 519.185 612.15 538.685 611.5 566.5C611.679 594.725 624.346 614.891 649.5 627C689.882 641.872 721.715 631.372 745 595.5C747.224 606.383 750.39 617.05 754.5 627.5C774.167 628.833 793.833 628.833 813.5 627.5C808.946 615.566 806.113 603.233 805 590.5C804.667 552.167 804.333 513.833 804 475.5C803.492 454.615 795.659 437.115 780.5 423ZM294.5 351.5C280.336 348.438 266.003 347.105 251.5 347.5C243.162 348.675 234.828 350.508 226.5 353C202.208 362.382 187.375 379.882 182 405.5C180.624 420.46 180.124 435.46 180.5 450.5H146.5V492.5H180.5V633.5H239.5V492.5H282.5V450.5H239.5C239.333 439.495 239.5 428.495 240 417.5C241.346 405.947 247.512 398.447 258.5 395C268.193 393.012 277.86 393.179 287.5 395.5C288.167 395.167 288.833 394.833 289.5 394.5C291.677 380.24 293.344 365.907 294.5 351.5ZM1115.5 451.5C1149.83 451.333 1184.17 451.5 1218.5 452C1183.38 499.45 1147.88 546.617 1112 593.5C1111.5 605.162 1111.33 616.829 1111.5 628.5H1296.5V583.5C1259.5 583.667 1222.5 583.5 1185.5 583C1221.33 535.167 1257.17 487.333 1293 439.5C1293.5 428.505 1293.67 417.505 1293.5 406.5H1115.5V451.5ZM1483.5 134.5C1621.5 134.333 1759.5 134.5 1897.5 135C1909.57 138.067 1917.4 145.567 1921 157.5C1921.67 296.167 1921.67 434.833 1921 573.5C1917.74 586.391 1909.57 594.224 1896.5 597C1759.17 597.667 1621.83 597.667 1484.5 597C1468.84 592.862 1460.34 582.695 1459 566.5C1458.33 432.833 1458.33 299.167 1459 165.5C1460.03 149.395 1468.2 139.062 1483.5 134.5ZM744.5 530.5C752.589 560.514 741.922 579.68 712.5 588C703.395 590.222 694.395 589.889 685.5 587C678.572 584.406 674.072 579.573 672 572.5C669.046 548.299 679.546 534.299 703.5 530.5H744.5ZM1656.5 509.5H1724.5V304.5H1656.5V509.5ZM1656.5 266.5H1724.5V213.5H1656.5V266.5ZM1476.5 54.5C1619.17 54.3333 1761.83 54.5 1904.5 55C1918.35 59.5187 1923.85 69.0187 1921 83.5C1917.97 91.2007 1912.47 96.034 1904.5 98C1761.83 98.6667 1619.17 98.6667 1476.5 98C1465.61 94.9404 1459.61 87.7738 1458.5 76.5C1459.83 65.1833 1465.83 57.85 1476.5 54.5ZM1917.5 0.5C1921.78 4.80129 1922.61 9.80145 1920 15.5C1919.1 16.7013 1917.93 17.5348 1916.5 18C1765.83 18.6667 1615.17 18.6667 1464.5 18C1459.23 14.7741 1457.73 10.2741 1460 4.5C1461.38 3.29497 1462.54 1.96154 1463.5 0.5H1917.5Z" fill="url(#paint0_linear_162_1081)"/>
<defs>
<linearGradient id="paint0_linear_162_1081" x1="1921.73" y1="365.03" x2="0.5" y2="365.03" gradientUnits="userSpaceOnUse">
<stop stop-color="#E879F9"/>
<stop offset="1" stop-color="#38BDF8"/>
</linearGradient>
</defs>
</svg>
