<svg width="710" height="269" viewBox="0 0 710 269" fill="none" xmlns="http://www.w3.org/2000/svg">
<g clip-path="url(#clip0_131_560)">
<path opacity="0.99" fill-rule="evenodd" clip-rule="evenodd" d="M519.187 -0.17749C572.91 -0.17749 626.635 -0.17749 680.357 -0.17749C681.877 1.34949 682.172 3.12449 681.245 5.14751C680.925 5.57401 680.51 5.86986 680.002 6.03501C626.515 6.27169 573.03 6.27169 519.542 6.03501C517.672 4.88982 517.139 3.29232 517.945 1.24251C518.435 0.81471 518.847 0.341377 519.187 -0.17749Z" fill="black"/>
<path opacity="0.974" fill-rule="evenodd" clip-rule="evenodd" d="M523.802 18.9924C574.45 18.9332 625.094 18.9924 675.742 19.1699C680.659 20.774 682.611 24.1465 681.6 29.2874C680.524 32.0212 678.571 33.737 675.742 34.4349C625.094 34.6716 574.45 34.6716 523.802 34.4349C519.936 33.3488 517.806 30.8046 517.412 26.8024C517.884 22.785 520.014 20.1817 523.802 18.9924Z" fill="black"/>
<path opacity="0.995" fill-rule="evenodd" clip-rule="evenodd" d="M526.288 47.3924C575.278 47.3331 624.268 47.3924 673.258 47.5699C677.543 48.6586 680.322 51.3211 681.6 55.5574C681.838 104.784 681.838 154.011 681.6 203.237C680.443 207.814 677.543 210.594 672.903 211.58C624.151 211.817 575.395 211.817 526.643 211.58C521.084 210.111 518.066 206.502 517.59 200.752C517.353 153.301 517.353 105.849 517.59 58.3974C517.956 52.6801 520.856 49.0119 526.288 47.3924ZM587.703 75.4374C595.751 75.4374 603.795 75.4374 611.843 75.4374C611.843 81.7091 611.843 87.9806 611.843 94.2524C603.795 94.2524 595.751 94.2524 587.703 94.2524C587.703 87.9806 587.703 81.7091 587.703 75.4374ZM587.703 107.742C595.751 107.742 603.795 107.742 611.843 107.742C611.843 132.001 611.843 156.259 611.843 180.517C603.795 180.517 595.751 180.517 587.703 180.517C587.703 156.259 587.703 132.001 587.703 107.742Z" fill="black"/>
<path opacity="0.994" fill-rule="evenodd" clip-rule="evenodd" d="M-0.177734 250.453C-0.177734 201.226 -0.177734 151.999 -0.177734 102.773C1.40164 98.1781 4.59666 95.3971 9.40727 94.43C57.6873 94.1932 105.967 94.1932 154.247 94.43C160.116 95.6835 163.37 99.2928 164.01 105.258C164.247 152.709 164.247 200.161 164.01 247.613C163.818 252.674 161.392 256.165 156.732 258.085C107.17 258.675 57.5886 258.793 7.98727 258.44C3.89898 257.132 1.17733 254.47 -0.177734 250.453ZM88.9273 123.008C94.0758 122.867 99.164 123.341 104.192 124.428C103.782 129.542 103.19 134.63 102.417 139.693C102.18 139.811 101.944 139.929 101.707 140.048C98.2851 139.224 94.8533 139.164 91.4123 139.87C87.5115 141.094 85.3226 143.756 84.8448 147.858C84.6673 151.761 84.608 155.666 84.6673 159.573C89.7555 159.573 94.844 159.573 99.9323 159.573C99.9323 164.543 99.9323 169.513 99.9323 174.483C94.844 174.483 89.7555 174.483 84.6673 174.483C84.6673 191.168 84.6673 207.853 84.6673 224.538C77.6855 224.538 70.704 224.538 63.7223 224.538C63.7223 207.853 63.7223 191.168 63.7223 174.483C59.699 174.483 55.6755 174.483 51.6523 174.483C51.6523 169.513 51.6523 164.543 51.6523 159.573C55.6755 159.573 59.699 159.573 63.7223 159.573C63.5888 154.233 63.7663 148.908 64.2548 143.598C66.1629 134.503 71.4286 128.291 80.0523 124.96C83.0087 124.075 85.9673 123.425 88.9273 123.008Z" fill="black"/>
<path opacity="0.993" fill-rule="evenodd" clip-rule="evenodd" d="M181.938 94.2525C230.336 94.1932 278.734 94.2525 327.133 94.43C332.398 95.4357 335.534 98.5717 336.54 103.837C336.777 152.236 336.777 200.634 336.54 249.032C335.641 253.837 332.86 256.972 328.198 258.44C278.971 258.677 229.744 258.677 180.518 258.44C176.281 257.162 173.619 254.382 172.53 250.097C172.293 201.107 172.293 152.117 172.53 103.127C173.916 98.2491 177.052 95.2908 181.938 94.2525ZM251.518 142.177C260.885 141.706 269.286 144.251 276.723 149.81C282.104 154.821 284.885 161.033 285.065 168.447C285.183 182.056 285.302 195.664 285.42 209.272C285.815 213.793 286.821 218.171 288.438 222.407C281.456 222.881 274.474 222.881 267.493 222.407C266.034 218.698 264.91 214.911 264.12 211.047C255.854 223.782 244.553 227.51 230.218 222.23C221.288 217.931 216.791 210.772 216.728 200.752C216.958 190.878 221.573 183.956 230.573 179.985C235.927 177.849 241.488 176.666 247.258 176.435C252.818 176.257 258.38 176.198 263.943 176.257C264.002 172.942 263.943 169.629 263.765 166.317C262.212 160.236 258.248 157.277 251.873 157.442C248.148 157.4 245.012 158.702 242.465 161.347C241.462 163.114 240.929 165.008 240.868 167.027C234.123 167.027 227.378 167.027 220.633 167.027C220.492 160.148 223.096 154.528 228.443 150.165C235.295 145.05 242.987 142.388 251.518 142.177Z" fill="black"/>
<path opacity="0.992" fill-rule="evenodd" clip-rule="evenodd" d="M354.468 94.2525C402.865 94.1932 451.266 94.2525 499.663 94.43C504.612 95.354 507.746 98.2533 509.07 103.127C509.308 152.117 509.308 201.107 509.07 250.097C507.981 254.382 505.318 257.162 501.083 258.44C451.855 258.677 402.631 258.677 353.403 258.44C348.74 256.972 345.96 253.837 345.06 249.032C344.824 200.634 344.824 152.236 345.06 103.837C346.13 98.5671 349.266 95.3721 354.468 94.2525ZM395.648 143.952C416.71 143.952 437.776 143.952 458.838 143.952C458.898 147.859 458.838 151.764 458.66 155.667C445.941 172.648 433.218 189.629 420.498 206.61C433.633 206.787 446.768 206.847 459.903 206.787C459.903 212.112 459.903 217.437 459.903 222.762C438.01 222.762 416.121 222.762 394.228 222.762C394.168 218.619 394.228 214.477 394.405 210.337C407.143 193.694 419.745 176.95 432.213 160.105C420.026 159.927 407.835 159.868 395.648 159.927C395.648 154.602 395.648 149.277 395.648 143.952Z" fill="black"/>
<path opacity="0.966" fill-rule="evenodd" clip-rule="evenodd" d="M249.387 187.973C254.239 187.973 259.091 187.973 263.942 187.973C266.814 198.628 263.027 205.432 252.582 208.385C249.35 209.174 246.155 209.056 242.997 208.03C240.538 207.109 238.94 205.394 238.205 202.883C237.156 194.291 240.884 189.321 249.387 187.973Z" fill="black"/>
</g>
<defs>
<clipPath id="clip0_131_560">
<rect width="710" height="268.38" fill="white"/>
</clipPath>
</defs>
</svg>
